<svg width="489" height="493" viewBox="0 0 489 493" fill="none" xmlns="http://www.w3.org/2000/svg">
<path d="M488.4 231.8C487.8 295.2 471.5 344.8 437.6 387.9C401.2 434.2 353.8 463.6 295.8 475.5C251 484.6 207.4 480.6 164.6 465.1C155.1 461.6 145.8 457.5 136.9 452.6C134.2 451.1 131.9 450.9 128.9 451.9C88.3999 465 47.7999 478 7.19991 490.9C5.39991 491.5 2.99991 493.2 1.59991 491.9C-8.86917e-05 490.3 1.99991 487.9 2.59991 486C10.6999 461.9 18.7999 437.7 26.9999 413.6C31.9999 398.9 36.7999 384.3 41.9999 369.7C43.3999 365.9 42.8999 363 40.7999 359.5C30.4999 341.9 22.8999 323.1 17.4999 303.4C7.39991 266.4 6.29991 229 14.1999 191.6C22.7999 150.8 40.7999 114.4 68.4999 83.0001C102 45.0001 143.3 19.9001 192.4 7.80006C223.7 0.100065 255.3 -1.09993 287.1 4.10007C328.7 10.9001 366.2 27.4001 398.9 54.0001C432.9 81.7001 457.7 116.1 473.3 157.4C481.9 179.7 488.7 216.2 488.4 231.8ZM62.5999 431.5C87.3999 423.5 111.1 415.9 134.6 408.2C137.7 407.2 140.2 407.4 142.9 409.2C151.9 415.2 161.6 420 171.6 424.2C204.1 438 237.9 443 272.8 438.5C315.6 433 353.2 415.8 384.8 385.9C424.6 348.2 445.9 302 447.8 247.4C449.6 193.9 432.4 146.9 396.5 107C362.4 69.1001 319.6 47.5001 269.1 42.1001C225.2 37.4001 184.1 46.9001 146.1 69.7001C113.6 89.3001 88.6999 116 71.3999 149.7C52.2999 186.8 45.7999 226.2 51.2999 267.5C55.3999 298.7 66.5999 327.4 84.5999 353.2C86.5999 356.1 87.1999 358.5 85.9999 361.9C82.2999 372.1 78.9999 382.4 75.4999 392.6C71.2999 405.2 67.1999 417.8 62.5999 431.5Z" fill="#98CE87"/>
<path d="M129 184.7C129.5 160.9 137.9 143.2 153.8 129.1C158.9 124.5 165.2 122.5 172.3 123.5C175.3 123.9 178.3 124.2 181.3 124C186.9 123.7 190.7 126.4 192.6 131.3C199.3 148.7 205.8 166.1 212.3 183.6C214.5 189.6 210.7 194.3 207.5 198.6C203.8 203.7 199.3 208.2 194.9 212.7C190.4 217.3 189.8 219.9 192.9 225.5C211 258.4 236.4 283.7 270.9 299.3C272.1 299.8 273.3 300.5 274.5 301.1C279.1 303.2 283.2 302.7 286.7 298.7C293.1 291.2 300.1 284.3 306 276.4C309.9 271.2 312.6 270.3 318.5 272.9C336.1 280.5 352.6 290.1 369.4 299.4C372.5 301.1 373.6 303.7 373.5 307.3C372.6 336.8 355.7 352.2 326 359C311.6 362.3 298.3 358.7 285.1 353.9C257.4 343.9 230.7 332.1 208.3 312.3C190.5 296.5 174.8 278.9 161.5 259.2C151.3 244 140.7 229.1 134.8 211.4C131.4 202 128.9 192.4 129 184.7Z" fill="#98CE87"/>
</svg>
